<svg xmlns="http://www.w3.org/2000/svg" viewBox="0 0 224.49 72.69"><defs><style>.cls-1{isolation:isolate;}.cls-2,.cls-5{fill:#fff;}.cls-3{fill:#ff2727;}.cls-4,.cls-6{fill:red;}.cls-4{mix-blend-mode:hard-light;}.cls-5{stroke:#fff;stroke-miterlimit:10;}</style></defs><g class="cls-1"><g id="Layer_2" data-name="Layer 2"><g id="Layer_1-2" data-name="Layer 1"><path class="cls-2" d="M224.48,14.78a29.82,29.82,0,0,1-59.64.38,10.62,10.62,0,0,0,11.56,0,24,24,0,0,0,48.08-.38Z"/><path class="cls-3" d="M163.63,6.91c.16,9.18,13.81,9.18,14,0C177.44-2.27,163.79-2.27,163.63,6.91Z"/><path class="cls-2" d="M224.49,14.78a20.2,20.2,0,0,1-40.4.26,7.17,7.17,0,0,0,7.82,0,16.29,16.29,0,0,0,32.58-.26Z"/><path class="cls-3" d="M183.27,9.45c.1,6.22,9.35,6.21,9.46,0C192.62,3.23,183.37,3.23,183.27,9.45Z"/><path class="cls-2" d="M224.49,14.78a12.4,12.4,0,0,1-24.8.16,4.41,4.41,0,0,0,4.8,0,10,10,0,0,0,20-.16Z"/><path class="cls-3" d="M199.19,11.51c.06,3.81,5.74,3.81,5.81,0A2.91,2.91,0,0,0,199.19,11.51Z"/><path class="cls-2" d="M135.47,13.56V3.47h4.41c2,0,3.13,1,3.13,2.52a2.17,2.17,0,0,1-1.82,2.15v.13a2.39,2.39,0,0,1,2.3,2.4c0,1.77-1.33,2.89-3.49,2.89Zm2.11-5.91h1.59c1.14,0,1.76-.47,1.76-1.28s-.58-1.28-1.58-1.28h-1.77Zm1.88,4.3c1.22,0,1.88-.51,1.88-1.46s-.68-1.41-1.92-1.41h-1.84V12Z"/><path class="cls-2" d="M148.13,3.47c3,0,4.74,1.82,4.74,5s-1.72,5.12-4.74,5.12h-4V3.47Zm-1.86,8.29h1.53c1.86,0,2.91-1.14,2.91-3.28s-1.08-3.21-2.91-3.21h-1.53Z"/><path class="cls-4" d="M0,15.44c.12,7.22,10.86,7.21,11,0C10.86,8.22.12,8.22,0,15.44Z"/><path class="cls-5" d="M2,22.31V44.57H9V22.31Z"/><path class="cls-5" d="M21.11,35.25c.21,2.38,2.59,3.9,6,3.9,3.11,0,5.24-1.5,5.24-3.65,0-1.82-1.43-2.79-5.17-3.54L22.9,31.1c-6-1.13-9.07-4.4-9.07-9.55,0-6.4,5.13-10.59,13-10.59,7.67,0,13,4.15,13.11,10.21H32.27c-.18-2.32-2.38-3.93-5.31-3.93s-4.85,1.39-4.85,3.56c0,1.79,1.45,2.84,4.9,3.52l4.22.81c6.46,1.25,9.36,4.18,9.36,9.37,0,6.83-5.21,11-13.79,11-8.27,0-13.49-3.91-13.63-10.21Z"/><path class="cls-5" d="M53.39,17.21v5.4h4.48v5.26H53.39v9c0,1.68.86,2.5,2.7,2.5a13.61,13.61,0,0,0,1.78-.1v5a18.08,18.08,0,0,1-3.38.28c-5.86,0-8.16-1.78-8.16-6.14V27.87H42.91V22.61h3.42v-5.4Z"/><path class="cls-5" d="M60.29,33.43c0-7.2,4.34-11.64,11.34-11.64S83,26.19,83,33.43s-4.2,11.66-11.34,11.66S60.29,40.75,60.29,33.43Zm15.42,0c0-3.88-1.52-6.24-4.08-6.24s-4.08,2.36-4.08,6.24,1.48,6.26,4.08,6.26S75.71,37.39,75.71,33.43Z"/><path class="cls-5" d="M100.22,30.55a3.51,3.51,0,0,0-3.74-3.32c-2.76,0-4.16,2.06-4.16,6.18s1.42,6.24,4.16,6.24a3.42,3.42,0,0,0,3.74-3.16h6.5c-.42,5.32-4.2,8.6-10.24,8.6-7.34,0-11.26-4.08-11.26-11.68s3.92-11.62,11.26-11.62c6.14,0,9.8,3.3,10.24,8.76Z"/><path class="cls-5" d="M123.87,22.31h7.92l-7.94,9.56,8.48,12.7h-8.24l-5.56-8.52-1.36,1.54v7h-7V14h7V30.63h.38Z"/><path class="cls-2" d="M152,0H136.3a4.43,4.43,0,0,0-4.43,4.43V12.6A4.43,4.43,0,0,0,136.3,17H152a4.43,4.43,0,0,0,4.44-4.43V4.43A4.43,4.43,0,0,0,152,0Zm2.61,12.21a2.94,2.94,0,0,1-2.93,2.94H136.63a2.94,2.94,0,0,1-2.93-2.94V4.82a2.93,2.93,0,0,1,2.93-2.93h15.06a2.93,2.93,0,0,1,2.93,2.93Z"/><path class="cls-2" d="M27,58.31h.48v.81h-.18L23.25,69.88h-.67Zm-2.42,7.15h5.46l.2.55H24.38Zm2.74-6.34v-.81h.31l4.42,11.57h-.67Z"/><path class="cls-2" d="M36.5,61.54h.62v1.73h0A2.62,2.62,0,0,1,38,61.94a2.44,2.44,0,0,1,1.61-.53,2.66,2.66,0,0,1,1.18.26,2.47,2.47,0,0,1,.86.71,2.92,2.92,0,0,1,.47,1h0a2.94,2.94,0,0,1,.52-1,2.53,2.53,0,0,1,.89-.72,2.71,2.71,0,0,1,1.23-.27,2.78,2.78,0,0,1,1.41.35,2.31,2.31,0,0,1,.94,1,3.19,3.19,0,0,1,.33,1.5v5.63h-.62V64.39a2.93,2.93,0,0,0-.26-1.3,2,2,0,0,0-.75-.83A2.32,2.32,0,0,0,44.65,62a2.25,2.25,0,0,0-1.24.35,2.27,2.27,0,0,0-.82,1,3.16,3.16,0,0,0-.29,1.42v5.18h-.62V64.37a2.78,2.78,0,0,0-.28-1.26,2.21,2.21,0,0,0-3.14-.78,2.42,2.42,0,0,0-.83,1,3.57,3.57,0,0,0-.31,1.55v5H36.5Z"/><path class="cls-2" d="M50.6,69.5A3.42,3.42,0,0,1,49.3,68a5.42,5.42,0,0,1-.46-2.3h0a5.27,5.27,0,0,1,.46-2.3,3.53,3.53,0,0,1,1.28-1.49,3.73,3.73,0,0,1,3.78,0,3.54,3.54,0,0,1,1.27,1.43,4.93,4.93,0,0,1,.45,2.18v.29H49.15v-.52h6.64l-.32.43v-.21a4.39,4.39,0,0,0-.38-1.89A3,3,0,0,0,54,62.39,2.9,2.9,0,0,0,52.47,62a2.82,2.82,0,0,0-1.56.44,2.88,2.88,0,0,0-1.06,1.22,4.25,4.25,0,0,0-.39,1.89v.21a4.82,4.82,0,0,0,.39,2A2.87,2.87,0,0,0,50.94,69a3,3,0,0,0,1.63.44,3.41,3.41,0,0,0,1.29-.23,2.46,2.46,0,0,0,.94-.66,2.43,2.43,0,0,0,.53-1l0-.06H56v.07a3.32,3.32,0,0,1-.42,1,2.85,2.85,0,0,1-.74.77,3.35,3.35,0,0,1-1,.5,4.4,4.4,0,0,1-1.23.17A3.62,3.62,0,0,1,50.6,69.5Z"/><path class="cls-2" d="M57.5,61.54h.62v1.73h0A2.68,2.68,0,0,1,59,61.94a2.46,2.46,0,0,1,1.61-.53,2.6,2.6,0,0,1,1.18.26,2.3,2.3,0,0,1,.86.71,2.59,2.59,0,0,1,.47,1h0a3.11,3.11,0,0,1,.51-1,2.62,2.62,0,0,1,.89-.72,2.73,2.73,0,0,1,1.24-.27,2.78,2.78,0,0,1,1.41.35,2.34,2.34,0,0,1,.93,1,3.08,3.08,0,0,1,.34,1.5v5.63h-.62V64.39a2.93,2.93,0,0,0-.27-1.3,1.84,1.84,0,0,0-.75-.83A2.31,2.31,0,0,0,65.65,62a2.25,2.25,0,0,0-1.24.35,2.29,2.29,0,0,0-.83,1,3.3,3.3,0,0,0-.29,1.42v5.18h-.62V64.37a2.66,2.66,0,0,0-.28-1.26A2.06,2.06,0,0,0,60.48,62a2.11,2.11,0,0,0-1.22.36,2.37,2.37,0,0,0-.84,1,3.73,3.73,0,0,0-.3,1.55v5H57.5Z"/><path class="cls-2" d="M72.72,69.73a3.13,3.13,0,0,1-1.08-.83A3.35,3.35,0,0,1,71,67.65h0v2.23h-.62V58.31H71v5.44h0a3.35,3.35,0,0,1,.65-1.24,3.1,3.1,0,0,1,1.08-.82,3.31,3.31,0,0,1,1.38-.29,3.15,3.15,0,0,1,1.82.54,3.69,3.69,0,0,1,1.24,1.5,5.32,5.32,0,0,1,.45,2.25h0A5.3,5.3,0,0,1,77.14,68a3.67,3.67,0,0,1-1.23,1.52,3.18,3.18,0,0,1-1.83.54A3.22,3.22,0,0,1,72.72,69.73ZM75.54,69a3.09,3.09,0,0,0,1-1.32,4.81,4.81,0,0,0,.37-2h0a4.76,4.76,0,0,0-.37-2,3,3,0,0,0-1-1.3,2.8,2.8,0,0,0-3.12,0,3.09,3.09,0,0,0-1.08,1.32,4.44,4.44,0,0,0-.4,1.95h0a4.57,4.57,0,0,0,.39,1.94A3.15,3.15,0,0,0,72.4,69a2.83,2.83,0,0,0,3.14,0Z"/><path class="cls-2" d="M80.35,69.5A3.47,3.47,0,0,1,79.06,68a5.27,5.27,0,0,1-.46-2.3h0a5.42,5.42,0,0,1,.45-2.3,3.36,3.36,0,0,1,3.17-2,3.48,3.48,0,0,1,1.9.51,3.44,3.44,0,0,1,1.26,1.43,4.93,4.93,0,0,1,.45,2.18v.29H78.9v-.52h6.65l-.33.43v-.21a4.25,4.25,0,0,0-.38-1.89,2.84,2.84,0,0,0-1.06-1.23A2.9,2.9,0,0,0,82.22,62a2.87,2.87,0,0,0-1.56.44,3,3,0,0,0-1.06,1.22,4.25,4.25,0,0,0-.38,1.89v.21a4.83,4.83,0,0,0,.38,2A2.89,2.89,0,0,0,80.7,69a3,3,0,0,0,1.63.44,3.45,3.45,0,0,0,1.29-.23,2.42,2.42,0,0,0,.93-.66,2.57,2.57,0,0,0,.54-1v-.06h.63l0,.07a2.89,2.89,0,0,1-.42,1,2.82,2.82,0,0,1-.73.77,3.41,3.41,0,0,1-1,.5,4.4,4.4,0,0,1-1.23.17A3.64,3.64,0,0,1,80.35,69.5Z"/><path class="cls-2" d="M87.25,61.54h.62v1.61h0a2.5,2.5,0,0,1,.8-1.29,2.26,2.26,0,0,1,1.84-.41,1.9,1.9,0,0,1,.32.09v.62a1.11,1.11,0,0,0-.34-.12A2,2,0,0,0,90,62a1.89,1.89,0,0,0-1.13.34,2.08,2.08,0,0,0-.74,1,3.65,3.65,0,0,0-.26,1.41v5.19h-.62Z"/><path class="cls-2" d="M96.72,69.49A3.53,3.53,0,0,1,95.41,68,5.26,5.26,0,0,1,95,65.71v0a5.18,5.18,0,0,1,.46-2.28,3.53,3.53,0,0,1,1.31-1.49,3.63,3.63,0,0,1,1.94-.52,3.69,3.69,0,0,1,2,.52,3.51,3.51,0,0,1,1.3,1.49,5,5,0,0,1,.47,2.28v0a5.09,5.09,0,0,1-.47,2.29,3.48,3.48,0,0,1-1.3,1.5,3.69,3.69,0,0,1-2,.52A3.63,3.63,0,0,1,96.72,69.49Zm3.57-.49a2.87,2.87,0,0,0,1.08-1.29,4.73,4.73,0,0,0,.39-2v0a4.68,4.68,0,0,0-.39-2,3,3,0,0,0-1.09-1.29A2.9,2.9,0,0,0,98.66,62a2.83,2.83,0,0,0-1.62.46A2.9,2.9,0,0,0,96,63.7a4.68,4.68,0,0,0-.39,2v0a4.73,4.73,0,0,0,.39,2A2.87,2.87,0,0,0,97,69a3,3,0,0,0,1.62.46A2.88,2.88,0,0,0,100.29,69Z"/><path class="cls-2" d="M104.22,62.08h-1.16v-.54h1.16V60.15a2.47,2.47,0,0,1,.23-1.13,1.41,1.41,0,0,1,.66-.64,2.31,2.31,0,0,1,1-.21l.38,0,.29,0v.53l-.28,0h-.32a1.42,1.42,0,0,0-1,.34,1.47,1.47,0,0,0-.37,1.14v1.35h1.91v.54h-1.9v7.8h-.62Z"/><path class="cls-2" d="M111.23,61.38h2v8.5h-2Z"/><path class="cls-2" d="M117.18,69.68a3.6,3.6,0,0,1-1.57-1.15,3.23,3.23,0,0,1-.65-1.78v-.12h2v.1a1.65,1.65,0,0,0,.44.86,2.22,2.22,0,0,0,.91.55,3.62,3.62,0,0,0,1.28.2,3.72,3.72,0,0,0,1.27-.2,1.78,1.78,0,0,0,.82-.57,1.4,1.4,0,0,0,.29-.87h0a1.23,1.23,0,0,0-.49-1,4.11,4.11,0,0,0-1.6-.62l-1.25-.25a5.22,5.22,0,0,1-2.55-1.16,2.76,2.76,0,0,1-.85-2.1h0a3,3,0,0,1,.56-1.79,3.67,3.67,0,0,1,1.52-1.2,5.51,5.51,0,0,1,2.21-.43,5.41,5.41,0,0,1,2.21.42,3.64,3.64,0,0,1,1.49,1.16,3.25,3.25,0,0,1,.6,1.74v.13h-2l0-.1a1.6,1.6,0,0,0-.37-.86,2,2,0,0,0-.81-.55,3.1,3.1,0,0,0-1.14-.19,3.19,3.19,0,0,0-1.17.19,1.76,1.76,0,0,0-.76.55,1.32,1.32,0,0,0-.27.82h0a1.2,1.2,0,0,0,.49,1,4,4,0,0,0,1.54.6l1.24.25a6.91,6.91,0,0,1,2,.68A2.87,2.87,0,0,1,123.66,65a3,3,0,0,1,.37,1.54h0a3.24,3.24,0,0,1-.54,1.87,3.53,3.53,0,0,1-1.56,1.23,7,7,0,0,1-4.75,0Z"/><path class="cls-2" d="M127.06,69.47a2.41,2.41,0,0,1-.64-1.89V62.92h-1.2V61.38h1.2V59.22h2v2.16H130v1.54h-1.58v4.5a1,1,0,0,0,.28.85,1.19,1.19,0,0,0,.81.24h.27l.22,0V70l-.43,0-.57,0A2.86,2.86,0,0,1,127.06,69.47Z"/><path class="cls-2" d="M132.43,69.52A3.65,3.65,0,0,1,131,68a5.1,5.1,0,0,1-.51-2.36v0a5.06,5.06,0,0,1,.51-2.35,3.67,3.67,0,0,1,1.44-1.53,4.26,4.26,0,0,1,2.15-.53,4.31,4.31,0,0,1,2.17.53,3.7,3.7,0,0,1,1.44,1.52,5,5,0,0,1,.52,2.36v0a5.12,5.12,0,0,1-.51,2.37,3.62,3.62,0,0,1-1.43,1.52,4.73,4.73,0,0,1-4.35,0Zm3.28-1.41a2.11,2.11,0,0,0,.72-1,4.28,4.28,0,0,0,.25-1.52v0a4,4,0,0,0-.26-1.5,2.11,2.11,0,0,0-.72-1,1.89,1.89,0,0,0-1.11-.33,1.82,1.82,0,0,0-1.08.33,2.06,2.06,0,0,0-.73,1,3.77,3.77,0,0,0-.26,1.5v0a3.87,3.87,0,0,0,.26,1.52,2.06,2.06,0,0,0,.73,1,2,2,0,0,0,2.2,0Z"/><path class="cls-2" d="M141.56,69.51A3.62,3.62,0,0,1,140.14,68a5.23,5.23,0,0,1-.5-2.36h0a5.18,5.18,0,0,1,.5-2.34,3.71,3.71,0,0,1,1.43-1.53,4.16,4.16,0,0,1,2.15-.54,4.06,4.06,0,0,1,1.94.43A3.33,3.33,0,0,1,147,62.77a3.27,3.27,0,0,1,.53,1.55v.06H145.6l0-.07a1.9,1.9,0,0,0-.58-1.05,1.75,1.75,0,0,0-1.25-.44,1.87,1.87,0,0,0-1.1.34,2.19,2.19,0,0,0-.72,1,3.8,3.8,0,0,0-.26,1.5h0a4,4,0,0,0,.26,1.51,2.15,2.15,0,0,0,.73.95,1.79,1.79,0,0,0,1.09.34A1.81,1.81,0,0,0,145,68a1.87,1.87,0,0,0,.6-1.07l0-.08h1.88v.06a3.27,3.27,0,0,1-.56,1.59,3.43,3.43,0,0,1-1.29,1.12,4.16,4.16,0,0,1-1.88.41A4.28,4.28,0,0,1,141.56,69.51Z"/><path class="cls-2" d="M148.77,58.31h2V69.88h-2Zm1.7,6.6h.34L154,61.38h2.31l-4,4.31H152l-1.48,1.54Zm.81,1.1,1.28-1.47,3.87,5.34h-2.3Z"/><path class="cls-2" d="M163.51,69.67a4.81,4.81,0,0,1-1.73-1.2,5.34,5.34,0,0,1-1.09-1.91,7.56,7.56,0,0,1-.38-2.51h0a7,7,0,0,1,.66-3.17,4.75,4.75,0,0,1,1.89-2,5.6,5.6,0,0,1,2.88-.72,5.66,5.66,0,0,1,2.41.49,4.53,4.53,0,0,1,1.69,1.32,4.44,4.44,0,0,1,.87,1.91l0,.14h-2.09l0-.09a3,3,0,0,0-1.07-1.46,3.08,3.08,0,0,0-1.8-.52,3.26,3.26,0,0,0-1.79.49,3.13,3.13,0,0,0-1.14,1.42,5.55,5.55,0,0,0-.41,2.23h0a6.15,6.15,0,0,0,.24,1.79,3.77,3.77,0,0,0,.68,1.34,3,3,0,0,0,1.07.84,3.17,3.17,0,0,0,1.41.29,3.42,3.42,0,0,0,1.54-.33A2.55,2.55,0,0,0,168.4,67a2.68,2.68,0,0,0,.4-1.42v-.18h-2.87V63.8h4.89v1.25a6,6,0,0,1-.34,2.1,4.25,4.25,0,0,1-2.58,2.59,6.14,6.14,0,0,1-2.13.34A6,6,0,0,1,163.51,69.67Z"/><path class="cls-2" d="M172.49,61.38h2v1.47h.05a2.24,2.24,0,0,1,.7-1.21,1.87,1.87,0,0,1,1.25-.44,2,2,0,0,1,.35,0l.28.05v1.81a1.13,1.13,0,0,0-.34-.08,2.45,2.45,0,0,0-.48,0,2,2,0,0,0-1,.23,1.55,1.55,0,0,0-.62.67,2.39,2.39,0,0,0-.22,1.08v4.93h-2Z"/><path class="cls-2" d="M178.93,69.52A3.71,3.71,0,0,1,177.5,68a5.1,5.1,0,0,1-.51-2.36v0a4.94,4.94,0,0,1,.52-2.35,3.71,3.71,0,0,1,1.43-1.53,4.69,4.69,0,0,1,4.33,0,3.7,3.7,0,0,1,1.44,1.52,5.1,5.1,0,0,1,.51,2.36v0a5.12,5.12,0,0,1-.51,2.37,3.56,3.56,0,0,1-1.43,1.52,4.73,4.73,0,0,1-4.35,0Zm3.28-1.41a2.11,2.11,0,0,0,.72-1,4.07,4.07,0,0,0,.25-1.52v0a4,4,0,0,0-.25-1.5,2.12,2.12,0,0,0-.73-1,2,2,0,0,0-2.19,0,2.2,2.2,0,0,0-.73,1,4,4,0,0,0-.26,1.5v0a4.06,4.06,0,0,0,.26,1.52,2.2,2.2,0,0,0,.73,1,1.87,1.87,0,0,0,1.11.33A1.83,1.83,0,0,0,182.21,68.11Z"/><path class="cls-2" d="M187.8,69.67a2.54,2.54,0,0,1-1-1.1,3.83,3.83,0,0,1-.34-1.69v-5.5h2v5.1a2.11,2.11,0,0,0,.42,1.4,1.61,1.61,0,0,0,1.29.49,1.92,1.92,0,0,0,.77-.15,1.56,1.56,0,0,0,.6-.42,1.81,1.81,0,0,0,.37-.65,2.53,2.53,0,0,0,.13-.85V61.38h2v8.5h-2V68.55h0a2.83,2.83,0,0,1-.58.79,2.54,2.54,0,0,1-.87.53,3.43,3.43,0,0,1-1.15.18A3.17,3.17,0,0,1,187.8,69.67Z"/><path class="cls-2" d="M195.67,61.38h2v1.47h.05a2.71,2.71,0,0,1,.63-.88,2.66,2.66,0,0,1,.89-.57,3,3,0,0,1,1.11-.2,3.31,3.31,0,0,1,1.87.53,3.47,3.47,0,0,1,1.22,1.53,5.9,5.9,0,0,1,.43,2.37h0a5.8,5.8,0,0,1-.43,2.35,3.53,3.53,0,0,1-1.21,1.53,3.24,3.24,0,0,1-1.85.53,3.14,3.14,0,0,1-1.12-.19,2.73,2.73,0,0,1-.91-.56,2.81,2.81,0,0,1-.63-.85h-.05v4.24h-2ZM200.86,68a2.25,2.25,0,0,0,.72-1,4,4,0,0,0,.25-1.45h0a4,4,0,0,0-.25-1.47,2.08,2.08,0,0,0-.73-.95,1.92,1.92,0,0,0-1.1-.32,1.87,1.87,0,0,0-1.09.33,2.23,2.23,0,0,0-.74,1,3.62,3.62,0,0,0-.27,1.46h0a3.61,3.61,0,0,0,.27,1.45,2.29,2.29,0,0,0,.74,1,2,2,0,0,0,2.2,0Z"/><circle class="cls-6" cx="112.23" cy="59.1" r="1.56"/></g></g></g></svg>